<?xml version="1.0" encoding="iso-8859-1"?>
<!-- Uploaded to: SVG Repo, www.svgrepo.com, Generator: SVG Repo Mixer Tools -->
<svg fill="#000000" height="800px" width="800px" version="1.1" id="Layer_1" xmlns="http://www.w3.org/2000/svg" xmlns:xlink="http://www.w3.org/1999/xlink" 
	 viewBox="0 0 477.427 477.427" xml:space="preserve">
<g>
	<polygon points="0.607,70.607 21.82,91.82 56.213,57.427 56.213,476.213 86.213,476.213 86.213,57.426 120.607,91.82 
		141.82,70.607 71.214,0 	"/>
	<polygon points="455.607,385.607 421.213,420 421.213,1.213 391.213,1.213 391.213,420 356.82,385.607 335.607,406.82 
		406.213,477.427 476.82,406.82 	"/>
	<path d="M266.767,193.551h30c0-26.824-18.291-49.448-43.053-56.078v-12.579h-30v12.579c-24.762,6.63-43.053,29.253-43.053,56.078
		c0,27.442,14.402,47.104,40.552,55.365l2.501,0.79v57.858c-7.838-4.981-13.053-13.734-13.053-23.688h-30
		c0,26.824,18.291,49.448,43.053,56.078v12.579h30v-12.579c24.762-6.63,43.053-29.253,43.053-56.078
		c0-27.442-14.402-47.104-40.552-55.365l-2.501-0.79v-57.858C261.551,174.843,266.767,183.597,266.767,193.551z M223.713,217.646
		c-9.068-4.708-13.053-12.223-13.053-24.096c0-9.954,5.216-18.708,13.053-23.688V217.646z M266.767,283.876
		c0,9.954-5.216,18.708-13.053,23.688V259.78C262.782,264.488,266.767,272.003,266.767,283.876z"/>
</g>
</svg>